# xmcd
#
# Track frame offsets:
#	150
#	15760
#	30900
#	49663
#	68640
#	84410
#	101935
#	120978
#	141155
#	166468
#	184570
#	210810
#	228458
#
# Disc length: 3220 seconds
#
# Revision: 0
# Processed by: cddbd v1.5.1PL2 Copyright (c) Steve Scherf et al.
# Submitted via: audiograbber 1.83.01
#
DISCID=940c920d
DTITLE=хамос йаккиягс - жымане ле 
DYEAR=1997
DGENRE=екк поп
TTITLE0=латиа жеццаяиа лоу
TTITLE1=амтевы
TTITLE2=дем сумгхифетаи г ломаниа
TTITLE3=жымане ле ам ле вяеиастеис
TTITLE4=пале апоье симела
TTITLE5=с╢ацапаы поу ма паяеи
TTITLE6=помаы 
TTITLE7=ма леимы г ма жуцы 
TTITLE8=йатахеты 
TTITLE9=еутувыс 
TTITLE10=ти йяила 
TTITLE11=сыпа 
TTITLE12=жикос and еяастгс 
EXTD=
EXTT0=
EXTT1=
EXTT2=
EXTT3=
EXTT4=
EXTT5=
EXTT6=
EXTT7=
EXTT8=
EXTT9=
EXTT10=
EXTT11=
EXTT12=
PLAYORDER=
